<svg xmlns="http://www.w3.org/2000/svg" xmlns:xlink="http://www.w3.org/1999/xlink" width="481" height="499" viewBox="0 0 481 499">
    <defs>
        <path id="a" d="M.108.158h31.74V40.33H.108z"/>
        <path id="c" d="M0 .231h30.225v81.91H0z"/>
    </defs>
    <g fill="none" fill-rule="evenodd">
        <path fill="#000" d="M285.3 90.83c.17.13.348.251.53.364-1.69 2.842-1.756 6.794-.514 14.246.312 1.87.62 3.757.916 5.652-1.296.691-2.03 1.4-2.074 1.731-.13 1.012 1.713 10.294 2.65 10.83.14.08.558.11 1.174.103.992 8.546 1.468 16.771.838 23.706.147 2.222 7.709 6.155 17.98 7.229.428 3.07.826 6.406.61 8.875-.06.748-.182 1.415-.376 1.971a11.934 11.934 0 0 1-.033-.273c-1.99 1.37-4.322 2.826-5.836 3.753l.026-.118c-2.08.462-5.697.656-6.946 1.499-4.938.933-10.34 2.502-12.167 3.72-2.784 1.857-31.617 62.293-29.065 106.374l.022-.006c.15.562.93.93 2.071 1.148-.003.16-.01.32-.02.483l.01-.198c-.007.17-.017.34-.028.511l.019-.313c-.01.177-.02.356-.033.535l.014-.222c-.01.17-.023.34-.037.51l.023-.288-.036.457.013-.168c-.011.14-.024.28-.037.42l.024-.252c-.016.184-.034.37-.053.555l.03-.302c-.073.77-.172 1.548-.287 2.317l-.006.047c-.37 2.45-.906 4.8-1.283 6.482-.55 2.449-1.625 8.757-2.32 15.021-.696 6.265 1.855 8.005 4.814 9.223 2.578 1.062 7.656 3.248 11.484-.464.29-1.218-4.292-20.764-2.552-20.416 1.74.348 2.9 8.932 4.176 9.396 2.145 1.392 2.953.174 2.841-.523-.608-3.823-1.74-10.092-2.319-13.455-.58-3.364-3.074-2.03-3.654-4.698a17.133 17.133 0 0 1-.258-1.661 49.235 49.235 0 0 1-.232-3.12l-.008-.185c2.242-.368 3.88-.86 3.862-1.298-.232-14.152 10.904-65.193 10.904-65.193-.464 23.432-11.136 104.4-6.264 132.705 3.53 2.278 8.737 3.325 13.124 3.802 2.747 25.782 5.606 52.104 7.042 68.132l.095 1.07c-3.248 15.66-22.35 9.24-23.394 19.1 10.673 3.945 31.32-1.043 39.44-5.336.22-1.933.605-8.583-.186-15.694-.723-14.86-2.92-51.016-4.292-80.465 3.292.09 6.851.207 10.533.353v17.518h14.261c5.796 29.642 11.63 60.043 13.197 65.32l.09.286a1150.22 1150.22 0 0 1 3.557 13.457c7.888 6.032 24.127 10.053 29.077 9.125 2.654-12.828-13.596-10.756-16.958-21.999l.024-.014c-2.396-9.105-6.02-37.137-9.395-66.175h40.386V292.5h-19.687l.109-1.769.019-.303c1.627-.033 2.782-.283 3-.803l.027-.084.065-.134c2.138-4.69 3.957-36.62 3.957-46.267 0-9.744-7.579-20.725-15.003-44.39-7.155-22.807-13.7-26.72-17.21-27.252-2.099-1.056-5.462-1.773-8.854-2.351l.003-.015s-3.143-1.713-7.403-1.333c-1.242-1.205-3.39-2.925-3.39-2.925l-.014-.168a1216.867 1216.867 0 0 1-.658-8.808l-.02-.287-.036-.493c-.05-.681-.097-1.34-.141-1.962a42.992 42.992 0 0 0 9.624-4.076 277.44 277.44 0 0 0 1.198-19.08c3.595 3.82 10.736-2.715 11.597-9.473.759-5.97-7.665-9.928-11.458-5.883.132-.431.251-.775.346-1.02.504-1.313.102-14.446-1.818-20.608-1.92-6.161-24.391-25.617-49.447-2.185zm59.45 119.759l.077.206c1.46 3.814 3.35 7.456 5.471 11.31 13.456 25.211 5.414 43.152 5.723 63.723-.08 1.018 1.382 1.957 3.502 2.718l-.025.241c-.086.8-.176 1.606-.268 2.39l.012-.098c-.056.484-.113.96-.168 1.42h-1.982c-8.717-28.418-13.851-58.004-12.343-81.91zm-37.402-46.582c-3.668 1.765-9.493 9.635-10.572 18.06l.03-.224c-1.82.286-3.478 1.114-4.968 2.521-5.748 5.42-7.815 18.36-8.538 28.259-.124 1.705.226 2.957 1.042 3.72.457.427.968.613 1.387.688.141.489.465.82.867.818.59-.002 1.127-.718 1.2-1.601.072-.88-.347-1.594-.938-1.592-.308 0-.603.196-.824.51a1.034 1.034 0 0 1-.41-.248c-.412-.402-.586-1.203-.504-2.317.698-9.546 2.633-21.967 7.897-26.934 1.483-1.398 3.108-2.081 4.966-2.087h.004c4.195.535 3.113 10.288 1.969 20.612-.318 2.848-.643 5.79-.883 8.707-.084 1.02-.579 1.556-1.046 1.837-.17-.313-.432-.508-.74-.507-.59.002-1.129.719-1.201 1.6-.073.882.347 1.595.938 1.593.372-.001.723-.285.95-.716 1.184-.391 2.726-1.486 2.917-3.81.238-2.891.563-5.822.878-8.655 1.27-11.454 2.371-21.382-3.079-22.445.985-6.243 5.374-12.948 8.438-15.682.058-.55.232-1.45.22-2.107zm18.76.048h-.029c0 .392.059.842.088.958.11.117 1.41 1.95 1.501 2.136.772 1.59-.623 3.927-2.735 7.466-3.001 5.028-7.5 12.565-8.97 24.172-1.942.41-3.43 2.69-3.43 5.443 0 3.043 1.819 5.51 4.06 5.51 2.243 0 4.06-2.467 4.06-5.51 0-2.467-1.194-4.555-2.84-5.257 1.418-11.184 5.623-18.228 8.714-23.407 2.334-3.912 4.022-6.737 2.81-9.23-.707-1.452-3.098-2.324-3.258-2.28zM154.132 69c-1.419-.1-12.873 14.395-17.231 15.611-.609-2.737-1.015-4.764-2.028-3.954-1.013.811-5.677 5.88-12.164 6.894-6.486 1.013-14.393 1.926-10.136 11.555-10.238 1.925-7.398 5.98-3.75 13.177 1.769 3.49 2.204 7.384 2.182 10.47-3.572.424-7.15 3.518-6.642 7.506.863 6.782 8.028 13.339 11.636 9.507a278.42 278.42 0 0 0 1.202 19.144 43.17 43.17 0 0 0 9.658 4.092 2504.18 2504.18 0 0 1-.632 8.646l.018-.236-.196 2.567.001-.04c-.16-.043-2.56.831-3.27 2.29a3.97 3.97 0 0 0-.391 1.446c-2.916-.244-5.07.36-6.084.736-3.663.234-7.37.527-9.607 1.785-3.724 2.095-47.769 34.795-45.63 53.08 1.269 10.832 24.897 25.657 30.565 25.952l.166.005c.818 0 1.818-.837 2.831-2.085l1.24.641c-.048.07-.086.126-.113.163-.582.815 2.328 4.307 5.587 3.958.287-.03.582-.134.882-.293l-9.152 21.002a.935.935 0 0 0 .482 1.225l5.948 2.593a342.327 342.327 0 0 1-4.679 16.68c-10.243 33.29-17.227 53.311-17.227 53.311 8.428 5.057 18.298 6.046 24.8 6.034-3.518 30.564-7.385 60.945-9.902 70.51l.02.012c-3.371 11.283-19.676 9.205-17.013 22.076 4.967.931 21.262-3.104 29.177-9.157 0 0 1.553-6.053 3.57-13.503l.089-.287c1.879-6.325 9.866-48.619 16.6-82.621a862.24 862.24 0 0 1 21.524-.856c-1.378 29.565-3.585 65.868-4.31 80.771l.002-.03c-.793 7.137-.408 13.81-.187 15.75 8.148 4.306 28.868 9.312 39.577 5.354-1.048-9.894-20.216-3.453-23.475-19.167l.095-1.073c1.486-16.584 4.49-44.149 7.324-70.779 4.241-.512 9.097-1.57 12.447-3.732 4.889-28.402-5.354-107.322-5.82-130.835 0 0 11.175 51.217 10.942 65.418-.018.44 1.621.932 3.867 1.301-.03.86-.085 1.786-.166 2.659l-.012.133c-.08.819-.181 1.583-.314 2.192-.582 2.677-3.085 1.339-3.667 4.714-.58 3.376-1.717 9.666-2.327 13.503-.112.7.699 1.92 2.852.523 1.28-.465 2.444-9.079 4.19-9.428 1.746-.35-2.852 19.265-2.56 20.487 3.84 3.724 8.935 1.531 11.523.465 2.969-1.222 5.529-2.968 4.83-9.253-.697-6.286-1.777-12.617-2.328-15.075-.441-1.97-1.1-4.852-1.458-7.744a33.93 33.93 0 0 1-.235-2.866c1.146-.22 1.926-.588 2.078-1.15l.023.004c2.56-44.232-26.372-104.878-29.166-106.74-1.795-1.197-7.026-2.73-11.894-3.674-1.535-.735-5.343-1.133-7.285-1.565l.025.116c-.516-.314-1.127-.691-1.788-1.106-1.533-1.907-3.101-3.294-4.4-3.919-.001.097.001.199.007.304a11.22 11.22 0 0 1-.09-.746c-.211-2.477.188-5.824.618-8.906l.556-.06.554-.068c9.737-1.233 16.79-4.977 16.932-7.125-.212-2.342-.296-4.832-.28-7.43l-.003.005c.063-10.597 1.843-23.018 3.798-34.743 1.013-6.076 1.16-9.834.268-12.56l-.2-.01c6.994.407 14.9-8.513-.102-23.009-.608-.607-4.764 1.724-4.764 1.724-2.636-11.454-6.59-12.163-8.008-12.265zM106 209.298c1.675 9.696 1.948 20.728 1.084 32.5-1.35 1.56-2.937 3.806-4.925 6.61l.1-.141-2.501-.994c.104-.473.112-.8 0-.925l-.044-.035c-7.799-4.307-16.994-18.275-15.365-20.952C90.695 214.934 106 209.297 106 209.297z" opacity=".221"/>
        <path fill="#38B9DB" d="M395.738 109.02c4.08-2.683 8.965-3.503 13.755-2.309 3.582.893 6.58 2.843 8.91 5.796 1.176 1.49 2.152 3.198 2.914 5.097 1.565-1.318 3.23-2.369 4.968-3.132 3.443-1.513 7.005-1.827 10.586-.935 4.791 1.195 8.72 4.212 11.063 8.496 2.315 4.234 2.89 9.373 1.62 14.47-1.309 5.247-4.462 9.562-9.923 13.581-4.885 3.594-11.429 6.849-19.007 10.617-2.587 1.287-5.52 2.745-8.58 4.315a3.75 3.75 0 0 1-4.796-1.195c-1.964-2.822-3.87-5.49-5.552-7.841-4.922-6.884-9.172-12.829-11.798-18.296-2.935-6.112-3.692-11.402-2.384-16.65 1.271-5.096 4.192-9.364 8.224-12.015zM74.166 124.965c-1.813-1.192-3.984-1.556-6.113-1.026-1.592.397-2.924 1.264-3.96 2.576a9.123 9.123 0 0 0-1.296 2.266 9.123 9.123 0 0 0-2.207-1.392c-1.53-.673-3.114-.813-4.705-.416-2.13.531-3.876 1.872-4.917 3.776-1.029 1.882-1.285 4.166-.72 6.431.582 2.332 1.983 4.25 4.41 6.036 2.171 1.598 5.08 3.044 8.448 4.719 1.15.572 2.453 1.22 3.813 1.918a1.667 1.667 0 0 0 2.132-.531c.873-1.255 1.72-2.44 2.467-3.486 2.187-3.059 4.076-5.701 5.244-8.131 1.304-2.717 1.64-5.068 1.06-7.4-.566-2.265-1.864-4.162-3.656-5.34zM432.224 214.657l12.146 3.254 2.216-8.271c.395-1.475 1.852-2.38 3.327-1.984l16.542 4.433c1.475.395 2.434 1.946 2.038 3.421l-2.216 8.271 12.22 3.275c1.483.397 2.436 1.94 2.04 3.421l-7.488 27.943c-.397 1.482-1.994 2.341-3.476 1.944l-46.274-12.399c-1.483-.397-2.287-1.9-1.89-3.381l7.488-27.944c.397-1.48 1.844-2.38 3.327-1.983zm30.476 8.166l-14.754-3.953 1.977-7.377 14.754 3.953-1.977 7.377zm-21.993 15.91l5.589 1.498-1.498 5.588 7.377 1.977 1.498-5.589 5.589 1.498 1.976-7.377-5.588-1.498 1.497-5.588-7.377-1.977-1.497 5.589-5.59-1.498-1.976 7.377zM449.104 322.441a.974.974 0 0 0-1.216.647l-4.557 14.904a.974.974 0 0 0 .647 1.216l3.726 1.14a.974.974 0 0 0 1.216-.648l4.557-14.903a.974.974 0 0 0-.647-1.217zm-7.236-12.398c-2.113-.646-4.381.512-5.052 2.619-.405 1.272-1.03 4.499-.75 5.793l-7.262-2.22c-1.455-.445-3.118.167-3.724 1.561a2.916 2.916 0 0 0 .026 2.4c-1.86 1.126-1.879 3.817-.048 4.972a2.927 2.927 0 0 0 .724 4.296c-1.378 1.726-.383 4.064 1.625 4.678l6.093 1.863c3.536 1.08 6.13.897 8.143.846l4.273-13.977c-1.011-.961-1.803-1.625-2.543-3.016-1.098-2.065-.748-6.21-.09-8.364a.973.973 0 0 0-.646-1.216zm-8.527-2.675a.974.974 0 1 0-.57 1.863l1.863.57a.973.973 0 1 0 .57-1.863zm13.041 3.987a.973.973 0 1 0-.57 1.863l1.864.57a.974.974 0 1 0 .57-1.863zm.233-5.933a.976.976 0 0 0-1.378.035l-1.5 1.578a.974.974 0 1 0 1.41 1.343l1.502-1.579a.974.974 0 0 0-.034-1.377zm-7.163-1.734a.974.974 0 1 0-1.921.324l.361 2.147a.975.975 0 0 0 1.922-.323zM9.781 282.51a2.134 2.134 0 0 1 2.735 1.275l11.677 32.08a2.134 2.134 0 0 1-1.276 2.735l-8.02 2.919a2.134 2.134 0 0 1-2.734-1.276L.487 288.163a2.134 2.134 0 0 1 1.275-2.734zm14.408-27.95c4.549-1.656 9.644.619 11.352 5.15 1.032 2.735 2.767 9.723 2.305 12.586l15.631-5.69c3.13-1.14 6.838.008 8.324 2.989a6.387 6.387 0 0 1 .22 5.254c4.197 2.248 4.546 8.132.673 10.869a6.394 6.394 0 0 1 1.23 2.062 6.412 6.412 0 0 1-2.32 7.417c3.213 3.62 1.304 8.847-3.018 10.42l-13.115 4.774c-7.611 2.77-13.305 2.665-17.716 2.786l-10.95-30.085c2.102-2.22 3.76-3.763 5.217-6.889 2.165-4.644.925-13.67-.763-18.306a2.132 2.132 0 0 1 1.275-2.735zm18.347-6.829a2.133 2.133 0 1 1 1.459 4.01l-4.01 1.46a2.132 2.132 0 1 1-1.46-4.01zm-28.07 10.217a2.132 2.132 0 1 1 1.46 4.01h-.001l-4.01 1.46a2.133 2.133 0 1 1-1.46-4.01zm-1.189-12.952a2.138 2.138 0 0 1 3.017-.082l3.464 3.28a2.134 2.134 0 1 1-2.934 3.099l-3.464-3.28a2.133 2.133 0 0 1-.083-3.017zm15.47-4.615a2.133 2.133 0 1 1 4.24.488l-.546 4.74a2.134 2.134 0 1 1-4.24-.488z" opacity=".35"/>
        <g>
            <path fill="#FFD8C2" d="M240.545 108.426c-.172 6.69-1.674 18.959 1.615 21.855 3.29 2.898 6.295 5.552 6.295 5.552-8.629 15.777-17.771 18.851-38.033.605 4.628-.861 5.075-7.239 5.138-9.975.064-2.737.451-17.552.451-17.552l24.534-.485z"/>
            <path fill="#E9CDBC" d="M240.545 108.426l-24.534.485s-.234 8.959-.369 14.23c8.62 2.19 17.18 2.356 24.586 1.445-.474-4.972.204-11.764.317-16.16"/>
            <path fill="#FFD8C2" d="M253.918 62.87c3.928-8.84 11.925-5.331 11.222 5.61-.701 10.942-7.433 19.64-14.168 5.752 2.245-8.698 2.946-11.363 2.946-11.363"/>
            <path fill="#17465C" d="M250.399 449.711c.014 9.322 1.48 17.875 2.046 20.345 11.14 4.372 38.597 7.82 51.84 1.158-2.791-12.613-26.584-1.519-33.072-21.32-6.322-1.213-20.814-.183-20.814-.183"/>
            <g transform="translate(175.247 458.379)">
                <mask id="b" fill="#fff">
                    <use xlink:href="#a"/>
                </mask>
                <path fill="#17465C" d="M31.848.158c-1.52 9.904-2.644 17.94-2.644 17.94-7.73 8.26-19.216 25.89-27.881 21.559C-4.243 22.642 11.08 18.317 11.897.872c3.495.418 19.951-.714 19.951-.714" mask="url(#b)"/>
            </g>
            <path fill="#DEDEDE" d="M180.398 358.594c13.3-2.418 81.81.002 95.109 3.225 3.223-16.524-13.703-87.452-16.926-88.258-3.224-.807-48.764 7.254-49.973 8.463"/>
            <path fill="#17465C" d="M269.058 257.843c2.217 23.274 1.039 146.149 2.155 192.053-7.982 4.75-20.692 1.721-20.692 1.721-2.004-30.393-7.778-149.422-11.424-161.99-6.9-1.86-16.563 1.774-16.563 1.774-3.169 9.684-13.076 155.716-15.44 167.136-10.98 6.915-20.242 3.027-20.242 3.027 4.008-27.422 1.441-189.943 1.606-199.287 10.62-10.118 76.862-5.228 80.6-4.434"/>
            <path fill="#38B9DB" d="M207.726 131.904c-3.022 2.116-9.596 4.534-9.596 4.534l-3.829 126.442s51.183 3.627 70.93-2.216c9.98-2.954-7.859-119.693-8.161-120.6-.302-.906-8.388-7.33-8.388-7.33s-16.599 8.639-21.335 9.043c-4.734.403-19.62-9.873-19.62-9.873"/>
            <path fill="#FFF" d="M251.629 134.624c-3.124 30.427 8.765 184.073 12.392 245.43 19.345 1.814 32.644-4.231 34.457-6.65 2.72-22.366-17.933-103.873-17.933-129.262 0-25.39-3.829-88.058-4.434-93.8-.604-5.744-24.482-15.718-24.482-15.718M226.315 155.177c-1.21 10.277-7.33 88.259-6.725 90.072.605 1.814 11.184 13.904 11.486 12.997.302-.907 9.068-10.881 9.068-12.997 0-2.116-9.37-90.072-9.37-90.072h-4.46z"/>
            <path fill="#FFF" d="M219.74 149.132c1.814 2.418 4.384 8.615 5.744 9.22 1.36.604 4.987.604 5.743 0 .755-.605 5.44-8.01 5.44-8.01l-8.463-7.86s-7.556 5.744-8.463 6.65"/>
            <path fill="#3CCBF1" d="M215.434 126.917c-2.418 1.41-9.345 4.885-9.345 5.692 0 .806 7.456 20.956 11.687 24.18 6.146-7.254 9.571-12.795 9.571-12.795l11.084 10.377c10.378-9.672 11.334-20.276 11.234-20.88-.102-.605-7.633-5.063-9.017-6.625-4.434 7.556-13.3 14.91-13.3 14.91s-10.806-10.628-11.914-14.86"/>
            <path fill="#17465C" d="M257.657 31.538c2.946 8.277 4.628 15.994 3.647 21.463-.982 5.471-1.262 17.396-1.683 18.378-.422.982-2.806 1.262-2.806 1.262s1.683-29.319-1.684-41.664"/>
            <path fill="#FFD8C2" d="M254.85 29.434c5.331 14.87 1.016 33.082 3.648 75.192.42 6.734-32.24 20.466-58.205 3.78-2.398-3.36-9.132-68.872-3.801-76.728 5.331-7.857 42.366-20.481 58.358-2.244"/>
            <path fill="#FFD8C2" d="M194.388 63.944c-3.928-8.838-11.923-5.33-11.222 5.611.701 10.942 11.222 21.605 14.309 9.678-2.245-8.696-3.087-15.29-3.087-15.29"/>
            <path fill="#17465C" d="M195.09 27.47c-1.825-11.502 20.901-22.306 37.455-21.885 16.554.42 20.154-4.676 20.154-4.676 4.21 6.454 23.474 25.719 3.975 33.014-6.033-6.173-24.689-13.047-34.65-8.277-9.96 4.77-21.79 3.928-24.877 8.559 6.078 21.883.186 23.847 1.168 27.495.982 3.646 1.965 11.783 1.404 12.765-.562.981-3.367.56-3.367.56s-1.403-9.538-3.506-12.905c-2.105-3.366-15.9-32.966 2.244-34.65"/>
            <path fill="#ECF0F1" d="M250.924 133.113c-.605 10.276 1.812 110.876 5.843 135.259 2.822-33.853 4.836-81.862 7.053-92.138-2.016-3.023-6.045-7.254-6.045-7.254l5.238-1.41c1.209-6.045 1.41-27.406 1.209-28.211-.2-.806-13.298-6.246-13.298-6.246"/>
            <path fill="#FFF" d="M204.175 133.717c2.72 31.535-5.138 182.864-8.766 244.222-19.344 1.813-36.27-3.023-38.084-5.44-2.72-22.368 23.879-104.982 23.879-130.372 0-25.389-2.116-86.95-1.512-92.692.605-5.743 24.483-15.718 24.483-15.718"/>
            <path fill="#ECF0F1" d="M204.88 132.206c.604 10.277.152 111.632-3.879 136.014-2.82-33.852-6.8-82.616-9.017-92.893 2.016-3.023 6.045-7.254 6.045-7.254l-5.238-1.41c-1.21-6.045-1.411-27.406-1.21-28.211.201-.805 13.299-6.246 13.299-6.246"/>
            <g transform="translate(152.709 148.095)">
                <mask id="d" fill="#fff">
                    <use xlink:href="#c"/>
                </mask>
                <path fill="#FFF" d="M27.186.231C23.76 7.687-4.753 71.663.688 82.141 12.98 81.74 29.3 66.629 29.3 66.629S32.424.634 27.186.23" mask="url(#d)"/>
            </g>
            <path fill="#FFD8C2" d="M243.293 201.505c6.21-3.233 16.143-5.674 22.6-6.61 6.456-.933 13.905-1.909 15.489-.117 2.477 2.803 6.576 14.553.49 18.1-6.087 3.549-31.072 1.293-35.873 4.046-2.82-.71-2.706-15.419-2.706-15.419"/>
            <path fill="#E9CDBC" d="M270.53 194.266a936.681 936.681 0 0 0 2.736 20.457c3.766-.323 6.916-.86 8.606-1.844 6.086-3.548 1.987-15.299-.49-18.101-1.21-1.37-5.849-1.121-10.853-.512"/>
            <path fill="#FFF" d="M246.49 199.81c8.263 2.419 5.845 15.919 5.845 15.919-12.29 10.88-79.393 32.04-96.923 23.173-3.425-7.054-3.627-12.494 1.008-19.748 4.634-7.254 45.338-12.291 90.07-19.345M275.709 148.628c3.425 7.456 28.814 71.13 23.374 81.609-12.291-.403-24.583-17.128-24.583-17.128s-4.03-64.078 1.209-64.48"/>
            <path fill="#FFD8C2" d="M205.837 201.271c-5.894-3.778-15.566-7.103-21.913-8.614-6.348-1.511-13.677-3.152-15.415-1.511-2.72 2.569-7.859 13.903-2.116 17.984 5.743 4.08 30.83 4.08 35.364 7.254 2.871-.454 4.08-15.113 4.08-15.113"/>
            <path fill="#E9CDBC" d="M204.932 200.716c-.518 4.292-1.72 11.916-3.78 12.242-4.534-3.174-29.62-3.174-35.363-7.255-.945-.672-1.571-1.55-1.987-2.543-.023 2.402.66 4.598 2.591 5.97 5.743 4.08 30.83 4.08 35.364 7.254 2.871-.454 4.08-15.113 4.08-15.113-.29-.186-.597-.371-.905-.555"/>
            <path fill="#FFF" d="M205.788 199.81c-8.263 2.419-5.845 15.919-5.845 15.919 12.292 10.88 79.393 32.04 96.924 23.173 4.483-6.348 4.231-12.694-1.008-19.748-5.133-6.911-45.338-12.291-90.071-19.345"/>
            <path fill="#DCDFE0" d="M291.628 222.78c-.238.087-.774-1.043-1.984-2.568-.578-.781-1.406-1.604-2.335-2.484a27.893 27.893 0 0 0-3.349-2.51c-2.533-1.577-5.064-2.59-6.952-3.138-1.883-.566-3.118-.741-3.113-.986-.002-.194 1.291-.424 3.358-.114 2.061.29 4.847 1.199 7.555 2.888a21.326 21.326 0 0 1 3.516 2.799c.95 1.01 1.748 1.981 2.252 2.911 1.063 1.827 1.228 3.152 1.052 3.203M252.054 468.095c.151.838.286 1.504.392 1.961 11.138 4.372 38.596 7.82 51.839 1.158a8.236 8.236 0 0 0-.635-1.82c-15.94 6.907-39.473.713-51.596-1.299M204.451 476.477s.206-1.466.556-3.904c-15.195 19.337-22.418 25.288-29.106 23.011.178.79.391 1.601.668 2.451 8.665 4.332 20.15-13.3 27.882-21.558"/>
        </g>
    </g>
</svg>
